<svg x="0" y="0" width="300" height="300" version="1.1" xmlns="http://www.w3.org/2000/svg" xmlns:xlink="http://www.w3.org/1999/xlink"><g transform="translate(250,169.05351) scale(0.51357,0.51357)" data-paper-data="{&quot;description&quot;:&quot;Logo for PI CONFIG\n==================\n\nThis logo was generated by MarkMaker and is composed of elements designed by others.\n\nThe font is Encode Sans Compressed Light designed by Impallari Type and released under the OFL license via Google Fonts: https://www.google.com/fonts/specimen/Encode Sans Compressed. The font includes this copyright statement: Copyright (c) 2012, Impallari Type (www.impallari.com), with Reserved Font Name Encode Sans.\n\nMarkMaker uses semantic data from the Princeton University WordNet database http://wordnet.princeton.edu and font descriptions from Google Fonts https://www.google.com/fonts.\n\nThis design is inspired by designs that past users of MarkMaker have liked. As a result, it may be visually similar to past or future designs generated by the system. There is no guarantee that it is unique, original, or suitable in any way for use as a logo.\n\n&quot;}" fill="none" stroke="none" stroke-width="none" stroke-linecap="butt" stroke-linejoin="miter" stroke-miterlimit="10" stroke-dasharray="" stroke-dashoffset="0" font-family="sans-serif" font-weight="normal" font-size="12" text-anchor="start" mix-blend-mode="normal"><path d="M-428.37248,39.94295l0,-154.08591l467.31543,0l0,154.08591z" fill="#0c0f07" stroke="none" stroke-width="0"></path><g data-paper-data="{&quot;elementType&quot;:&quot;logo&quot;}" fill="#ffffff" stroke-width="1"><g data-paper-data="{&quot;elementType&quot;:&quot;text&quot;}"><g transform="translate(-436.35905,-100)" data-paper-data="{&quot;baseline&quot;:75.2,&quot;elementType&quot;:&quot;row&quot;}"><g transform="translate(39.22952,0)" data-paper-data="{&quot;baselineProportion&quot;:1,&quot;fontSize&quot;:100,&quot;baseline&quot;:75.2,&quot;elementType&quot;:&quot;word&quot;}"><path d="M7.7,26.5c2.73333,-0.53333 5.3,-0.95 7.7,-1.25c2.4,-0.3 4.76667,-0.45 7.1,-0.45c8.86667,0 15.38333,2.03333 19.55,6.1c4.16667,4.06667 6.25,10.43333 6.25,19.1c0,8.8 -2.15,15.21667 -6.45,19.25c-4.3,4.03333 -11.15,6.05 -20.55,6.05c-1.33333,0 -2.65,-0.03333 -3.95,-0.1c-1.3,-0.06667 -2.65,-0.16667 -4.05,-0.3l0,25.1l-5.6,0l0,-73.5 M22.6,70.2c6.86667,0 11.9,-1.6 15.1,-4.8c3.2,-3.2 4.8,-8.33333 4.8,-15.4c0,-6.93333 -1.51667,-12 -4.55,-15.2c-3.03333,-3.2 -7.88333,-4.8 -14.55,-4.8c-3.06667,0 -6.43333,0.3 -10.1,0.9l0,38.6c1.6,0.2 3.18333,0.36667 4.75,0.5c1.56667,0.13333 3.08333,0.2 4.55,0.2z" data-paper-data="{&quot;elementType&quot;:&quot;letter&quot;,&quot;baseline&quot;:75.2,&quot;baselineProportion&quot;:1,&quot;fontSize&quot;:100}"></path><path d="M59.1,26l5.6,0l0,74l-5.6,0l0,-74z" data-paper-data="{&quot;elementType&quot;:&quot;letter&quot;,&quot;baseline&quot;:74,&quot;baselineProportion&quot;:1,&quot;fontSize&quot;:100}"></path></g><g transform="translate(146.25905,0)" data-paper-data="{&quot;baselineProportion&quot;:0.9868421052631579,&quot;fontSize&quot;:100,&quot;baseline&quot;:75,&quot;elementType&quot;:&quot;word&quot;}"><path d="M35.1,101c-5.33333,-0.06667 -9.93333,-0.85 -13.8,-2.35c-3.86667,-1.5 -7.03333,-3.78333 -9.5,-6.85c-2.46667,-3.06667 -4.28333,-6.96667 -5.45,-11.7c-1.16667,-4.73333 -1.75,-10.4 -1.75,-17c0,-6.8 0.56667,-12.6 1.7,-17.4c1.13333,-4.8 2.91667,-8.71667 5.35,-11.75c2.43333,-3.03333 5.56667,-5.25 9.4,-6.65c3.83333,-1.4 8.45,-2.1 13.85,-2.1c1.53333,0 3.16667,0.05 4.9,0.15c1.73333,0.1 3.56667,0.31667 5.5,0.65l0,5.1c-1.13333,-0.26667 -2.58333,-0.46667 -4.35,-0.6c-1.76667,-0.13333 -3.55,-0.2 -5.35,-0.2c-4.53333,0 -8.4,0.56667 -11.6,1.7c-3.2,1.13333 -5.8,3 -7.8,5.6c-2,2.6 -3.45,5.98333 -4.35,10.15c-0.9,4.16667 -1.35,9.28333 -1.35,15.35c0,5.8 0.48333,10.76667 1.45,14.9c0.96667,4.13333 2.45,7.51667 4.45,10.15c2,2.63333 4.55,4.56667 7.65,5.8c3.1,1.23333 6.81667,1.85 11.15,1.85c1,0 2.5,-0.06667 4.5,-0.2c2,-0.13333 3.86667,-0.33333 5.6,-0.6l0,5c-1.53333,0.33333 -3.06667,0.58333 -4.6,0.75c-1.53333,0.16667 -3.4,0.25 -5.6,0.25z" data-paper-data="{&quot;elementType&quot;:&quot;letter&quot;,&quot;baseline&quot;:74.8,&quot;baselineProportion&quot;:0.9868073878627969,&quot;fontSize&quot;:100}"></path><path d="M78.6,101c-16.93333,0 -25.4,-12.63333 -25.4,-37.9c0,-12.86667 2.08333,-22.43333 6.25,-28.7c4.16667,-6.26667 10.55,-9.4 19.15,-9.4c17,0 25.5,12.7 25.5,38.1c0,25.26667 -8.5,37.9 -25.5,37.9 M78.6,95.8c6.86667,0 11.86667,-2.6 15,-7.8c3.13333,-5.2 4.7,-13.5 4.7,-24.9c0,-11.26667 -1.6,-19.58333 -4.8,-24.95c-3.2,-5.36667 -8.16667,-8.05 -14.9,-8.05c-6.86667,0 -11.86667,2.63333 -15,7.9c-3.13333,5.26667 -4.7,13.63333 -4.7,25.1c0,11.46667 1.55,19.78333 4.65,24.95c3.1,5.16667 8.11667,7.75 15.05,7.75z" data-paper-data="{&quot;elementType&quot;:&quot;letter&quot;,&quot;baseline&quot;:75,&quot;baselineProportion&quot;:0.9868421052631579,&quot;fontSize&quot;:100}"></path><path d="M116.4,26l5.7,0l33.3,55.7l4.5,8.4l0.5,-0.1l0,-64l5.3,0l0,74l-5.8,0l-32.9,-55.2l-4.8,-8.9l-0.5,0.1l0,64l-5.3,0l0,-74z" data-paper-data="{&quot;elementType&quot;:&quot;letter&quot;,&quot;baseline&quot;:74,&quot;baselineProportion&quot;:1,&quot;fontSize&quot;:100}"></path><path d="M181.1,26l35.5,0l0,5.2l-29.9,0l0,29l28.1,0l0,5.2l-28.1,0l0,34.6l-5.6,0l0,-74z" data-paper-data="{&quot;elementType&quot;:&quot;letter&quot;,&quot;baseline&quot;:74,&quot;baselineProportion&quot;:1,&quot;fontSize&quot;:100}"></path><path d="M227.5,26l5.6,0l0,74l-5.6,0l0,-74z" data-paper-data="{&quot;elementType&quot;:&quot;letter&quot;,&quot;baseline&quot;:74,&quot;baselineProportion&quot;:1,&quot;fontSize&quot;:100}"></path><path d="M275.9,101c-5.4,-0.06667 -10.01667,-0.85 -13.85,-2.35c-3.83333,-1.5 -6.98333,-3.78333 -9.45,-6.85c-2.46667,-3.06667 -4.28333,-6.96667 -5.45,-11.7c-1.16667,-4.73333 -1.75,-10.4 -1.75,-17c0,-6.8 0.58333,-12.58333 1.75,-17.35c1.16667,-4.76667 3,-8.68333 5.5,-11.75c2.5,-3.06667 5.7,-5.3 9.6,-6.7c3.9,-1.4 8.61667,-2.1 14.15,-2.1c1.6,0 3.7,0.13333 6.3,0.4c2.6,0.26667 5.06667,0.63333 7.4,1.1l0,5.1c-2.33333,-0.53333 -4.63333,-0.91667 -6.9,-1.15c-2.26667,-0.23333 -4.33333,-0.35 -6.2,-0.35c-4.73333,0 -8.71667,0.58333 -11.95,1.75c-3.23333,1.16667 -5.88333,3.05 -7.95,5.65c-2.06667,2.6 -3.55,5.98333 -4.45,10.15c-0.9,4.16667 -1.35,9.25 -1.35,15.25c0,5.8 0.46667,10.75 1.4,14.85c0.93333,4.1 2.4,7.48333 4.4,10.15c2,2.66667 4.56667,4.61667 7.7,5.85c3.13333,1.23333 6.86667,1.85 11.2,1.85c1,0 2.26667,-0.05 3.8,-0.15c1.53333,-0.1 3.16667,-0.25 4.9,-0.45l0,-32.8l5.3,0l0,37.3c-2.93333,0.53333 -5.46667,0.88333 -7.6,1.05c-2.13333,0.16667 -4.3,0.25 -6.5,0.25z" data-paper-data="{&quot;elementType&quot;:&quot;letter&quot;,&quot;baseline&quot;:74.8,&quot;baselineProportion&quot;:0.9868073878627969,&quot;fontSize&quot;:100}"></path></g></g></g></g></g></svg>